<?xml version="1.0" standalone="no"?>
<!DOCTYPE svg PUBLIC "-//W3C//DTD SVG 20010904//EN"
 "http://www.w3.org/TR/2001/REC-SVG-20010904/DTD/svg10.dtd">
<svg version="1.0" xmlns="http://www.w3.org/2000/svg"
 width="1200.000000pt" height="1200.000000pt" viewBox="0 0 1200.000000 1200.000000"
 preserveAspectRatio="xMidYMid meet">

<g transform="translate(0.000000,1200.000000) scale(0.100000,-0.100000)"
fill="#000000" stroke="none">
<path d="M5695 10589 c-964 -46 -1627 -333 -1836 -795 -57 -126 -59 -144 -59
-691 l0 -503 1100 0 1100 0 0 -200 0 -200 -1802 0 c-1972 0 -1855 3 -1992 -59
-359 -163 -626 -621 -735 -1266 -55 -324 -79 -748 -62 -1113 17 -387 53 -648
126 -927 127 -489 368 -839 671 -976 126 -57 144 -59 691 -59 l502 0 4 618 c3
587 4 621 25 709 65 280 176 487 362 673 196 197 459 329 755 380 113 19 161
20 1398 20 797 0 1316 4 1372 10 453 51 759 317 858 745 21 88 21 114 24 1367
4 1401 7 1334 -56 1472 -141 312 -504 555 -1026 685 -385 96 -892 136 -1420
110z m-732 -621 c79 -37 160 -116 200 -197 30 -61 32 -72 32 -171 0 -93 -3
-111 -27 -163 -38 -80 -117 -160 -197 -200 -61 -30 -72 -32 -171 -32 -93 0
-111 3 -163 27 -80 38 -160 117 -200 197 -30 61 -32 72 -32 171 0 93 3 112 27
162 47 101 147 190 251 224 70 23 210 14 280 -18z"/>
</g>
</svg>
